<mxfile host="app.diagrams.net" modified="2022-11-30T12:44:51.288Z" agent="5.0 (Windows NT 10.0; Win64; x64) AppleWebKit/537.36 (KHTML, like Gecko) Chrome/107.0.0.0 Safari/537.36 Edg/107.0.1418.56" etag="aeCzU305tE6iQu6Lmrcz" version="20.6.0" type="github">
  <diagram id="WfuZ3mFmaZbnHHpjd7_A" name="第 1 页">
    <mxGraphModel dx="715" dy="413" grid="0" gridSize="10" guides="1" tooltips="1" connect="1" arrows="1" fold="1" page="1" pageScale="1" pageWidth="827" pageHeight="1169" math="0" shadow="0">
      <root>
        <mxCell id="0" />
        <mxCell id="1" parent="0" />
        <mxCell id="Mz-O9ERdwm8rpj6mgalD-1" value="" style="endArrow=classic;html=1;strokeColor=#EA6B66;curved=1;" parent="1" edge="1">
          <mxGeometry width="50" height="50" relative="1" as="geometry">
            <mxPoint x="334.47" y="222" as="sourcePoint" />
            <mxPoint x="544.47" y="222" as="targetPoint" />
          </mxGeometry>
        </mxCell>
        <mxCell id="Mz-O9ERdwm8rpj6mgalD-2" value="" style="endArrow=classic;html=1;rounded=0;strokeWidth=1;strokeColor=none;" parent="1" edge="1">
          <mxGeometry width="50" height="50" relative="1" as="geometry">
            <mxPoint x="335.47" y="223" as="sourcePoint" />
            <mxPoint x="287.47" y="169" as="targetPoint" />
          </mxGeometry>
        </mxCell>
        <mxCell id="Mz-O9ERdwm8rpj6mgalD-3" value="" style="endArrow=classic;html=1;rounded=0;strokeColor=#EA6B66;" parent="1" edge="1">
          <mxGeometry width="50" height="50" relative="1" as="geometry">
            <mxPoint x="334.47" y="222" as="sourcePoint" />
            <mxPoint x="303.47" y="192" as="targetPoint" />
          </mxGeometry>
        </mxCell>
        <mxCell id="Mz-O9ERdwm8rpj6mgalD-4" value="" style="endArrow=classic;html=1;rounded=1;startArrow=none;startFill=0;strokeColor=#EA6B66;" parent="1" edge="1">
          <mxGeometry width="50" height="50" relative="1" as="geometry">
            <mxPoint x="303.47" y="192" as="sourcePoint" />
            <mxPoint x="342.47" y="180" as="targetPoint" />
          </mxGeometry>
        </mxCell>
        <mxCell id="Mz-O9ERdwm8rpj6mgalD-5" value="" style="endArrow=classic;html=1;rounded=0;strokeColor=#EA6B66;strokeWidth=1;" parent="1" edge="1">
          <mxGeometry width="50" height="50" relative="1" as="geometry">
            <mxPoint x="340.47" y="181" as="sourcePoint" />
            <mxPoint x="390.47" y="131" as="targetPoint" />
          </mxGeometry>
        </mxCell>
        <mxCell id="Mz-O9ERdwm8rpj6mgalD-6" value="" style="endArrow=classic;html=1;rounded=1;strokeColor=#EA6B66;strokeWidth=1;" parent="1" edge="1">
          <mxGeometry width="50" height="50" relative="1" as="geometry">
            <mxPoint x="389.47" y="132" as="sourcePoint" />
            <mxPoint x="423.47" y="122" as="targetPoint" />
          </mxGeometry>
        </mxCell>
        <mxCell id="Mz-O9ERdwm8rpj6mgalD-7" value="" style="endArrow=classic;html=1;rounded=1;strokeColor=#EA6B66;strokeWidth=1;" parent="1" edge="1">
          <mxGeometry width="50" height="50" relative="1" as="geometry">
            <mxPoint x="421.47" y="123" as="sourcePoint" />
            <mxPoint x="413.47" y="165" as="targetPoint" />
          </mxGeometry>
        </mxCell>
        <mxCell id="Mz-O9ERdwm8rpj6mgalD-8" value="" style="endArrow=classic;html=1;rounded=1;strokeColor=#EA6B66;strokeWidth=1;" parent="1" edge="1">
          <mxGeometry width="50" height="50" relative="1" as="geometry">
            <mxPoint x="413.47" y="164" as="sourcePoint" />
            <mxPoint x="448.47" y="168" as="targetPoint" />
          </mxGeometry>
        </mxCell>
        <mxCell id="Mz-O9ERdwm8rpj6mgalD-9" value="" style="endArrow=none;dashed=1;html=1;dashPattern=1 3;strokeWidth=2;rounded=1;strokeColor=#EA6B66;" parent="1" edge="1">
          <mxGeometry width="50" height="50" relative="1" as="geometry">
            <mxPoint x="447.47" y="168" as="sourcePoint" />
            <mxPoint x="478.47" y="171" as="targetPoint" />
          </mxGeometry>
        </mxCell>
        <mxCell id="Mz-O9ERdwm8rpj6mgalD-10" value="" style="endArrow=classic;html=1;rounded=1;strokeColor=#EA6B66;strokeWidth=1;" parent="1" edge="1">
          <mxGeometry width="50" height="50" relative="1" as="geometry">
            <mxPoint x="473.47" y="171" as="sourcePoint" />
            <mxPoint x="544.47" y="222" as="targetPoint" />
          </mxGeometry>
        </mxCell>
        <mxCell id="Mz-O9ERdwm8rpj6mgalD-23" value="&lt;h1 style=&quot;font-size: 13px;&quot;&gt;P&lt;sub style=&quot;&quot;&gt;1&lt;/sub&gt;&lt;/h1&gt;" style="text;html=1;strokeColor=none;fillColor=none;spacing=5;spacingTop=-20;whiteSpace=wrap;overflow=hidden;rounded=0;align=left;" parent="1" vertex="1">
          <mxGeometry x="291.47" y="206" width="25" height="17" as="geometry" />
        </mxCell>
        <mxCell id="Mz-O9ERdwm8rpj6mgalD-24" value="&lt;h1 style=&quot;font-size: 13px;&quot;&gt;P&lt;sub style=&quot;&quot;&gt;2&lt;/sub&gt;&lt;/h1&gt;" style="text;html=1;strokeColor=none;fillColor=none;spacing=5;spacingTop=-20;whiteSpace=wrap;overflow=hidden;rounded=0;align=left;" parent="1" vertex="1">
          <mxGeometry x="303.47" y="168" width="25" height="17" as="geometry" />
        </mxCell>
        <mxCell id="Mz-O9ERdwm8rpj6mgalD-29" value="&lt;h1 style=&quot;font-size: 13px;&quot;&gt;P&lt;sub style=&quot;&quot;&gt;3&lt;/sub&gt;&lt;/h1&gt;" style="text;html=1;strokeColor=none;fillColor=none;spacing=5;spacingTop=-20;whiteSpace=wrap;overflow=hidden;rounded=0;align=left;" parent="1" vertex="1">
          <mxGeometry x="338.47" y="143" width="25" height="17" as="geometry" />
        </mxCell>
        <mxCell id="Mz-O9ERdwm8rpj6mgalD-30" value="&lt;h1 style=&quot;font-size: 13px;&quot;&gt;P&lt;sub style=&quot;&quot;&gt;4&lt;/sub&gt;&lt;/h1&gt;" style="text;html=1;strokeColor=none;fillColor=none;spacing=5;spacingTop=-20;whiteSpace=wrap;overflow=hidden;rounded=0;align=left;" parent="1" vertex="1">
          <mxGeometry x="386.47" y="110" width="25" height="17" as="geometry" />
        </mxCell>
        <mxCell id="Mz-O9ERdwm8rpj6mgalD-31" value="&lt;h1 style=&quot;font-size: 13px;&quot;&gt;P&lt;sub style=&quot;&quot;&gt;5&lt;/sub&gt;&lt;/h1&gt;" style="text;html=1;strokeColor=none;fillColor=none;spacing=5;spacingTop=-20;whiteSpace=wrap;overflow=hidden;rounded=0;align=left;" parent="1" vertex="1">
          <mxGeometry x="416.47" y="129" width="25" height="17" as="geometry" />
        </mxCell>
        <mxCell id="Mz-O9ERdwm8rpj6mgalD-32" value="&lt;h1 style=&quot;font-size: 13px;&quot;&gt;P&lt;sub style=&quot;&quot;&gt;6&lt;/sub&gt;&lt;/h1&gt;" style="text;html=1;strokeColor=none;fillColor=none;spacing=5;spacingTop=-20;whiteSpace=wrap;overflow=hidden;rounded=0;align=left;" parent="1" vertex="1">
          <mxGeometry x="419.47" y="148" width="25" height="17" as="geometry" />
        </mxCell>
        <mxCell id="Mz-O9ERdwm8rpj6mgalD-33" value="&lt;h1 style=&quot;font-size: 13px;&quot;&gt;P&lt;sub style=&quot;&quot;&gt;C&lt;/sub&gt;&lt;/h1&gt;" style="text;html=1;strokeColor=none;fillColor=none;spacing=5;spacingTop=-20;whiteSpace=wrap;overflow=hidden;rounded=0;align=left;" parent="1" vertex="1">
          <mxGeometry x="500.47" y="179" width="25" height="17" as="geometry" />
        </mxCell>
        <mxCell id="Mz-O9ERdwm8rpj6mgalD-34" value="&lt;h1 style=&quot;font-size: 13px;&quot;&gt;Y&lt;/h1&gt;" style="text;html=1;strokeColor=none;fillColor=none;spacing=5;spacingTop=-20;whiteSpace=wrap;overflow=hidden;rounded=0;align=left;" parent="1" vertex="1">
          <mxGeometry x="416.47" y="226.78" width="17" height="14" as="geometry" />
        </mxCell>
        <mxCell id="Mz-O9ERdwm8rpj6mgalD-35" value="" style="endArrow=classic;html=1;strokeColor=#EA6B66;curved=1;" parent="1" edge="1">
          <mxGeometry width="50" height="50" relative="1" as="geometry">
            <mxPoint x="329.0000000000002" y="422" as="sourcePoint" />
            <mxPoint x="539.0000000000002" y="422" as="targetPoint" />
          </mxGeometry>
        </mxCell>
        <mxCell id="Mz-O9ERdwm8rpj6mgalD-36" value="" style="endArrow=classic;html=1;rounded=0;strokeWidth=1;strokeColor=none;" parent="1" edge="1">
          <mxGeometry width="50" height="50" relative="1" as="geometry">
            <mxPoint x="330" y="423.0000000000001" as="sourcePoint" />
            <mxPoint x="282" y="368.9999999999999" as="targetPoint" />
          </mxGeometry>
        </mxCell>
        <mxCell id="Mz-O9ERdwm8rpj6mgalD-37" value="" style="endArrow=classic;html=1;rounded=0;strokeColor=#EA6B66;" parent="1" edge="1">
          <mxGeometry width="50" height="50" relative="1" as="geometry">
            <mxPoint x="329.0000000000002" y="422" as="sourcePoint" />
            <mxPoint x="298" y="392" as="targetPoint" />
          </mxGeometry>
        </mxCell>
        <mxCell id="Mz-O9ERdwm8rpj6mgalD-43" value="" style="endArrow=none;dashed=1;html=1;dashPattern=1 3;strokeWidth=2;rounded=1;strokeColor=#EA6B66;" parent="1" edge="1">
          <mxGeometry width="50" height="50" relative="1" as="geometry">
            <mxPoint x="508" y="371" as="sourcePoint" />
            <mxPoint x="525.47" y="389" as="targetPoint" />
          </mxGeometry>
        </mxCell>
        <mxCell id="Mz-O9ERdwm8rpj6mgalD-44" value="" style="endArrow=classic;html=1;rounded=1;strokeColor=#EA6B66;strokeWidth=1;" parent="1" edge="1">
          <mxGeometry width="50" height="50" relative="1" as="geometry">
            <mxPoint x="526" y="388" as="sourcePoint" />
            <mxPoint x="539.0000000000002" y="422" as="targetPoint" />
          </mxGeometry>
        </mxCell>
        <mxCell id="Mz-O9ERdwm8rpj6mgalD-45" value="&lt;h1 style=&quot;font-size: 13px;&quot;&gt;P&lt;sub style=&quot;&quot;&gt;1&lt;/sub&gt;&lt;/h1&gt;" style="text;html=1;strokeColor=none;fillColor=none;spacing=5;spacingTop=-20;whiteSpace=wrap;overflow=hidden;rounded=0;align=left;" parent="1" vertex="1">
          <mxGeometry x="286" y="406" width="25" height="17" as="geometry" />
        </mxCell>
        <mxCell id="Mz-O9ERdwm8rpj6mgalD-51" value="&lt;h1 style=&quot;font-size: 13px;&quot;&gt;P&lt;sub style=&quot;&quot;&gt;C&lt;/sub&gt;&lt;/h1&gt;" style="text;html=1;strokeColor=none;fillColor=none;spacing=5;spacingTop=-20;whiteSpace=wrap;overflow=hidden;rounded=0;align=left;" parent="1" vertex="1">
          <mxGeometry x="529" y="386" width="25" height="17" as="geometry" />
        </mxCell>
        <mxCell id="Mz-O9ERdwm8rpj6mgalD-52" value="&lt;h1 style=&quot;font-size: 13px;&quot;&gt;Y&lt;/h1&gt;" style="text;html=1;strokeColor=none;fillColor=none;spacing=5;spacingTop=-20;whiteSpace=wrap;overflow=hidden;rounded=0;align=left;" parent="1" vertex="1">
          <mxGeometry x="411" y="426.78" width="17" height="14" as="geometry" />
        </mxCell>
        <mxCell id="Mz-O9ERdwm8rpj6mgalD-53" value="" style="endArrow=none;dashed=1;html=1;dashPattern=1 3;strokeWidth=2;rounded=1;strokeColor=#EA6B66;" parent="1" edge="1">
          <mxGeometry width="50" height="50" relative="1" as="geometry">
            <mxPoint x="298" y="392" as="sourcePoint" />
            <mxPoint x="321" y="379" as="targetPoint" />
          </mxGeometry>
        </mxCell>
        <mxCell id="Mz-O9ERdwm8rpj6mgalD-54" value="" style="endArrow=classic;html=1;strokeColor=#EA6B66;curved=1;" parent="1" edge="1">
          <mxGeometry width="50" height="50" relative="1" as="geometry">
            <mxPoint x="319.97000000000025" y="379" as="sourcePoint" />
            <mxPoint x="508" y="372" as="targetPoint" />
          </mxGeometry>
        </mxCell>
        <mxCell id="Mz-O9ERdwm8rpj6mgalD-56" value="&lt;h1 style=&quot;font-size: 13px;&quot;&gt;P&lt;sub style=&quot;&quot;&gt;k&lt;/sub&gt;&lt;/h1&gt;" style="text;html=1;strokeColor=none;fillColor=none;spacing=5;spacingTop=-20;whiteSpace=wrap;overflow=hidden;rounded=0;align=left;" parent="1" vertex="1">
          <mxGeometry x="406" y="356" width="25" height="17" as="geometry" />
        </mxCell>
        <mxCell id="el_4l2FaYXIpmvED6yrz-12" value="" style="endArrow=classic;html=1;strokeColor=#EA6B66;curved=1;" edge="1" parent="1">
          <mxGeometry width="50" height="50" relative="1" as="geometry">
            <mxPoint x="329.0000000000002" y="596" as="sourcePoint" />
            <mxPoint x="539.0000000000002" y="596" as="targetPoint" />
          </mxGeometry>
        </mxCell>
        <mxCell id="el_4l2FaYXIpmvED6yrz-13" value="" style="endArrow=classic;html=1;rounded=0;strokeWidth=1;strokeColor=none;" edge="1" parent="1">
          <mxGeometry width="50" height="50" relative="1" as="geometry">
            <mxPoint x="330" y="597.0000000000001" as="sourcePoint" />
            <mxPoint x="282" y="542.9999999999999" as="targetPoint" />
          </mxGeometry>
        </mxCell>
        <mxCell id="el_4l2FaYXIpmvED6yrz-14" value="" style="endArrow=classic;html=1;rounded=0;strokeColor=#EA6B66;" edge="1" parent="1">
          <mxGeometry width="50" height="50" relative="1" as="geometry">
            <mxPoint x="329.0000000000002" y="596" as="sourcePoint" />
            <mxPoint x="298" y="566" as="targetPoint" />
          </mxGeometry>
        </mxCell>
        <mxCell id="el_4l2FaYXIpmvED6yrz-15" value="" style="endArrow=none;dashed=1;html=1;dashPattern=1 3;strokeWidth=2;rounded=1;strokeColor=#EA6B66;" edge="1" parent="1">
          <mxGeometry width="50" height="50" relative="1" as="geometry">
            <mxPoint x="508" y="545" as="sourcePoint" />
            <mxPoint x="525.47" y="563" as="targetPoint" />
          </mxGeometry>
        </mxCell>
        <mxCell id="el_4l2FaYXIpmvED6yrz-16" value="" style="endArrow=classic;html=1;rounded=1;strokeColor=#EA6B66;strokeWidth=1;" edge="1" parent="1">
          <mxGeometry width="50" height="50" relative="1" as="geometry">
            <mxPoint x="526" y="562" as="sourcePoint" />
            <mxPoint x="539.0000000000002" y="596" as="targetPoint" />
          </mxGeometry>
        </mxCell>
        <mxCell id="el_4l2FaYXIpmvED6yrz-17" value="&lt;h1 style=&quot;font-size: 13px;&quot;&gt;P&lt;sub style=&quot;&quot;&gt;1&lt;/sub&gt;&lt;/h1&gt;" style="text;html=1;strokeColor=none;fillColor=none;spacing=5;spacingTop=-20;whiteSpace=wrap;overflow=hidden;rounded=0;align=left;" vertex="1" parent="1">
          <mxGeometry x="286" y="580" width="25" height="17" as="geometry" />
        </mxCell>
        <mxCell id="el_4l2FaYXIpmvED6yrz-18" value="&lt;h1 style=&quot;font-size: 13px;&quot;&gt;P&lt;sub style=&quot;&quot;&gt;C&lt;/sub&gt;&lt;/h1&gt;" style="text;html=1;strokeColor=none;fillColor=none;spacing=5;spacingTop=-20;whiteSpace=wrap;overflow=hidden;rounded=0;align=left;" vertex="1" parent="1">
          <mxGeometry x="529" y="560" width="25" height="17" as="geometry" />
        </mxCell>
        <mxCell id="el_4l2FaYXIpmvED6yrz-19" value="&lt;h1 style=&quot;font-size: 13px;&quot;&gt;Y&lt;/h1&gt;" style="text;html=1;strokeColor=none;fillColor=none;spacing=5;spacingTop=-20;whiteSpace=wrap;overflow=hidden;rounded=0;align=left;" vertex="1" parent="1">
          <mxGeometry x="411" y="600.78" width="17" height="14" as="geometry" />
        </mxCell>
        <mxCell id="el_4l2FaYXIpmvED6yrz-20" value="" style="endArrow=none;dashed=1;html=1;dashPattern=1 3;strokeWidth=2;rounded=1;strokeColor=#EA6B66;" edge="1" parent="1">
          <mxGeometry width="50" height="50" relative="1" as="geometry">
            <mxPoint x="298" y="566" as="sourcePoint" />
            <mxPoint x="321" y="553" as="targetPoint" />
          </mxGeometry>
        </mxCell>
        <mxCell id="el_4l2FaYXIpmvED6yrz-21" value="" style="endArrow=classic;html=1;strokeColor=#EA6B66;curved=1;" edge="1" parent="1">
          <mxGeometry width="50" height="50" relative="1" as="geometry">
            <mxPoint x="319.97000000000025" y="553" as="sourcePoint" />
            <mxPoint x="405" y="551" as="targetPoint" />
          </mxGeometry>
        </mxCell>
        <mxCell id="el_4l2FaYXIpmvED6yrz-22" value="&lt;h1 style=&quot;font-size: 13px;&quot;&gt;P&lt;sub style=&quot;&quot;&gt;k&lt;/sub&gt;&lt;/h1&gt;" style="text;html=1;strokeColor=none;fillColor=none;spacing=5;spacingTop=-20;whiteSpace=wrap;overflow=hidden;rounded=0;align=left;" vertex="1" parent="1">
          <mxGeometry x="354" y="530" width="25" height="17" as="geometry" />
        </mxCell>
        <mxCell id="el_4l2FaYXIpmvED6yrz-25" value="" style="endArrow=classic;html=1;strokeColor=#EA6B66;curved=1;" edge="1" parent="1">
          <mxGeometry width="50" height="50" relative="1" as="geometry">
            <mxPoint x="422" y="549" as="sourcePoint" />
            <mxPoint x="506" y="544" as="targetPoint" />
          </mxGeometry>
        </mxCell>
        <mxCell id="el_4l2FaYXIpmvED6yrz-26" value="&lt;h1 style=&quot;font-size: 13px;&quot;&gt;P&lt;sub&gt;j&lt;/sub&gt;&lt;/h1&gt;" style="text;html=1;strokeColor=none;fillColor=none;spacing=5;spacingTop=-20;whiteSpace=wrap;overflow=hidden;rounded=0;align=left;" vertex="1" parent="1">
          <mxGeometry x="433.47" y="528" width="38.53" height="16" as="geometry" />
        </mxCell>
        <mxCell id="el_4l2FaYXIpmvED6yrz-27" value="" style="endArrow=none;dashed=1;html=1;dashPattern=1 3;strokeWidth=2;rounded=1;strokeColor=#EA6B66;" edge="1" parent="1">
          <mxGeometry width="50" height="50" relative="1" as="geometry">
            <mxPoint x="406" y="552" as="sourcePoint" />
            <mxPoint x="421.53" y="550" as="targetPoint" />
            <Array as="points">
              <mxPoint x="418.53" y="550" />
            </Array>
          </mxGeometry>
        </mxCell>
      </root>
    </mxGraphModel>
  </diagram>
</mxfile>
